<mxfile host="app.diagrams.net" modified="2021-10-19T10:14:16.781Z" agent="5.0 (Windows NT 10.0; Win64; x64) AppleWebKit/537.36 (KHTML, like Gecko) Chrome/94.0.4606.81 Safari/537.36" etag="KzRULww083RchvcMJD90" version="15.5.2" type="github">
  <diagram id="hZPZPwh8FY-nJZT_Ljyc" name="Page-1">
    <mxGraphModel dx="1221" dy="1744" grid="1" gridSize="10" guides="1" tooltips="1" connect="1" arrows="1" fold="1" page="1" pageScale="1" pageWidth="827" pageHeight="1169" math="0" shadow="0">
      <root>
        <mxCell id="0" />
        <mxCell id="1" parent="0" />
        <mxCell id="xQOM6FJt8l522oHHIs3V-1" value="Manufacturer" style="swimlane;fontStyle=3;align=center;verticalAlign=top;childLayout=stackLayout;horizontal=1;startSize=26;horizontalStack=0;resizeParent=1;resizeParentMax=0;resizeLast=0;collapsible=1;marginBottom=0;" vertex="1" parent="1">
          <mxGeometry x="360" y="110" width="160" height="114" as="geometry" />
        </mxCell>
        <mxCell id="xQOM6FJt8l522oHHIs3V-2" value="- contactNumber: String&#xa;- dealerPrice: decimal&#xa;-Â " style="text;strokeColor=none;fillColor=none;align=left;verticalAlign=top;spacingLeft=4;spacingRight=4;overflow=hidden;rotatable=0;points=[[0,0.5],[1,0.5]];portConstraint=eastwest;" vertex="1" parent="xQOM6FJt8l522oHHIs3V-1">
          <mxGeometry y="26" width="160" height="54" as="geometry" />
        </mxCell>
        <mxCell id="xQOM6FJt8l522oHHIs3V-3" value="" style="line;strokeWidth=1;fillColor=none;align=left;verticalAlign=middle;spacingTop=-1;spacingLeft=3;spacingRight=3;rotatable=0;labelPosition=right;points=[];portConstraint=eastwest;" vertex="1" parent="xQOM6FJt8l522oHHIs3V-1">
          <mxGeometry y="80" width="160" height="8" as="geometry" />
        </mxCell>
        <mxCell id="xQOM6FJt8l522oHHIs3V-4" value="+ method(type): type" style="text;strokeColor=none;fillColor=none;align=left;verticalAlign=top;spacingLeft=4;spacingRight=4;overflow=hidden;rotatable=0;points=[[0,0.5],[1,0.5]];portConstraint=eastwest;" vertex="1" parent="xQOM6FJt8l522oHHIs3V-1">
          <mxGeometry y="88" width="160" height="26" as="geometry" />
        </mxCell>
        <mxCell id="xQOM6FJt8l522oHHIs3V-5" value="Honda" style="swimlane;fontStyle=1;align=center;verticalAlign=top;childLayout=stackLayout;horizontal=1;startSize=26;horizontalStack=0;resizeParent=1;resizeParentMax=0;resizeLast=0;collapsible=1;marginBottom=0;" vertex="1" parent="1">
          <mxGeometry x="600" y="40" width="160" height="60" as="geometry" />
        </mxCell>
        <mxCell id="xQOM6FJt8l522oHHIs3V-7" value="" style="line;strokeWidth=1;fillColor=none;align=left;verticalAlign=middle;spacingTop=-1;spacingLeft=3;spacingRight=3;rotatable=0;labelPosition=right;points=[];portConstraint=eastwest;" vertex="1" parent="xQOM6FJt8l522oHHIs3V-5">
          <mxGeometry y="26" width="160" height="8" as="geometry" />
        </mxCell>
        <mxCell id="xQOM6FJt8l522oHHIs3V-8" value="+ method(type): type" style="text;strokeColor=none;fillColor=none;align=left;verticalAlign=top;spacingLeft=4;spacingRight=4;overflow=hidden;rotatable=0;points=[[0,0.5],[1,0.5]];portConstraint=eastwest;" vertex="1" parent="xQOM6FJt8l522oHHIs3V-5">
          <mxGeometry y="34" width="160" height="26" as="geometry" />
        </mxCell>
        <mxCell id="xQOM6FJt8l522oHHIs3V-9" value="Ford" style="swimlane;fontStyle=1;align=center;verticalAlign=top;childLayout=stackLayout;horizontal=1;startSize=26;horizontalStack=0;resizeParent=1;resizeParentMax=0;resizeLast=0;collapsible=1;marginBottom=0;" vertex="1" parent="1">
          <mxGeometry x="600" y="-90" width="160" height="60" as="geometry" />
        </mxCell>
        <mxCell id="xQOM6FJt8l522oHHIs3V-10" value="" style="line;strokeWidth=1;fillColor=none;align=left;verticalAlign=middle;spacingTop=-1;spacingLeft=3;spacingRight=3;rotatable=0;labelPosition=right;points=[];portConstraint=eastwest;" vertex="1" parent="xQOM6FJt8l522oHHIs3V-9">
          <mxGeometry y="26" width="160" height="8" as="geometry" />
        </mxCell>
        <mxCell id="xQOM6FJt8l522oHHIs3V-11" value="+ method(type): type" style="text;strokeColor=none;fillColor=none;align=left;verticalAlign=top;spacingLeft=4;spacingRight=4;overflow=hidden;rotatable=0;points=[[0,0.5],[1,0.5]];portConstraint=eastwest;" vertex="1" parent="xQOM6FJt8l522oHHIs3V-9">
          <mxGeometry y="34" width="160" height="26" as="geometry" />
        </mxCell>
        <mxCell id="xQOM6FJt8l522oHHIs3V-15" style="rounded=0;orthogonalLoop=1;jettySize=auto;html=1;exitX=0;exitY=0.5;exitDx=0;exitDy=0;entryX=1;entryY=0.5;entryDx=0;entryDy=0;endArrow=block;endFill=0;" edge="1" parent="1" source="xQOM6FJt8l522oHHIs3V-12" target="xQOM6FJt8l522oHHIs3V-2">
          <mxGeometry relative="1" as="geometry" />
        </mxCell>
        <mxCell id="xQOM6FJt8l522oHHIs3V-12" value="Toyota" style="swimlane;fontStyle=1;align=center;verticalAlign=top;childLayout=stackLayout;horizontal=1;startSize=26;horizontalStack=0;resizeParent=1;resizeParentMax=0;resizeLast=0;collapsible=1;marginBottom=0;" vertex="1" parent="1">
          <mxGeometry x="600" y="170" width="160" height="60" as="geometry" />
        </mxCell>
        <mxCell id="xQOM6FJt8l522oHHIs3V-13" value="" style="line;strokeWidth=1;fillColor=none;align=left;verticalAlign=middle;spacingTop=-1;spacingLeft=3;spacingRight=3;rotatable=0;labelPosition=right;points=[];portConstraint=eastwest;" vertex="1" parent="xQOM6FJt8l522oHHIs3V-12">
          <mxGeometry y="26" width="160" height="8" as="geometry" />
        </mxCell>
        <mxCell id="xQOM6FJt8l522oHHIs3V-14" value="+ method(type): type" style="text;strokeColor=none;fillColor=none;align=left;verticalAlign=top;spacingLeft=4;spacingRight=4;overflow=hidden;rotatable=0;points=[[0,0.5],[1,0.5]];portConstraint=eastwest;" vertex="1" parent="xQOM6FJt8l522oHHIs3V-12">
          <mxGeometry y="34" width="160" height="26" as="geometry" />
        </mxCell>
        <mxCell id="xQOM6FJt8l522oHHIs3V-16" style="edgeStyle=none;rounded=0;orthogonalLoop=1;jettySize=auto;html=1;exitX=0;exitY=0.5;exitDx=0;exitDy=0;entryX=1;entryY=0;entryDx=0;entryDy=0;endArrow=block;endFill=0;" edge="1" parent="1" source="xQOM6FJt8l522oHHIs3V-8" target="xQOM6FJt8l522oHHIs3V-1">
          <mxGeometry relative="1" as="geometry" />
        </mxCell>
        <mxCell id="xQOM6FJt8l522oHHIs3V-17" style="edgeStyle=none;rounded=0;orthogonalLoop=1;jettySize=auto;html=1;exitX=0;exitY=0.5;exitDx=0;exitDy=0;entryX=0.5;entryY=0;entryDx=0;entryDy=0;endArrow=block;endFill=0;" edge="1" parent="1" source="xQOM6FJt8l522oHHIs3V-11" target="xQOM6FJt8l522oHHIs3V-1">
          <mxGeometry relative="1" as="geometry" />
        </mxCell>
        <mxCell id="xQOM6FJt8l522oHHIs3V-21" value="Buyer" style="swimlane;fontStyle=1;align=center;verticalAlign=top;childLayout=stackLayout;horizontal=1;startSize=26;horizontalStack=0;resizeParent=1;resizeParentMax=0;resizeLast=0;collapsible=1;marginBottom=0;" vertex="1" parent="1">
          <mxGeometry x="540" y="394" width="160" height="114" as="geometry" />
        </mxCell>
        <mxCell id="xQOM6FJt8l522oHHIs3V-22" value="- name: String&#xa;- address: String&#xa;- phoneNumber: String" style="text;strokeColor=none;fillColor=none;align=left;verticalAlign=top;spacingLeft=4;spacingRight=4;overflow=hidden;rotatable=0;points=[[0,0.5],[1,0.5]];portConstraint=eastwest;" vertex="1" parent="xQOM6FJt8l522oHHIs3V-21">
          <mxGeometry y="26" width="160" height="54" as="geometry" />
        </mxCell>
        <mxCell id="xQOM6FJt8l522oHHIs3V-23" value="" style="line;strokeWidth=1;fillColor=none;align=left;verticalAlign=middle;spacingTop=-1;spacingLeft=3;spacingRight=3;rotatable=0;labelPosition=right;points=[];portConstraint=eastwest;" vertex="1" parent="xQOM6FJt8l522oHHIs3V-21">
          <mxGeometry y="80" width="160" height="8" as="geometry" />
        </mxCell>
        <mxCell id="xQOM6FJt8l522oHHIs3V-24" value="+ method(type): type" style="text;strokeColor=none;fillColor=none;align=left;verticalAlign=top;spacingLeft=4;spacingRight=4;overflow=hidden;rotatable=0;points=[[0,0.5],[1,0.5]];portConstraint=eastwest;" vertex="1" parent="xQOM6FJt8l522oHHIs3V-21">
          <mxGeometry y="88" width="160" height="26" as="geometry" />
        </mxCell>
        <mxCell id="xQOM6FJt8l522oHHIs3V-25" value="Dealership" style="swimlane;fontStyle=1;align=center;verticalAlign=top;childLayout=stackLayout;horizontal=1;startSize=26;horizontalStack=0;resizeParent=1;resizeParentMax=0;resizeLast=0;collapsible=1;marginBottom=0;" vertex="1" parent="1">
          <mxGeometry x="290" y="280" width="160" height="114" as="geometry" />
        </mxCell>
        <mxCell id="xQOM6FJt8l522oHHIs3V-26" value="- name: String&#xa;- address: String&#xa;- phoneNumber: String" style="text;strokeColor=none;fillColor=none;align=left;verticalAlign=top;spacingLeft=4;spacingRight=4;overflow=hidden;rotatable=0;points=[[0,0.5],[1,0.5]];portConstraint=eastwest;" vertex="1" parent="xQOM6FJt8l522oHHIs3V-25">
          <mxGeometry y="26" width="160" height="54" as="geometry" />
        </mxCell>
        <mxCell id="xQOM6FJt8l522oHHIs3V-27" value="" style="line;strokeWidth=1;fillColor=none;align=left;verticalAlign=middle;spacingTop=-1;spacingLeft=3;spacingRight=3;rotatable=0;labelPosition=right;points=[];portConstraint=eastwest;" vertex="1" parent="xQOM6FJt8l522oHHIs3V-25">
          <mxGeometry y="80" width="160" height="8" as="geometry" />
        </mxCell>
        <mxCell id="xQOM6FJt8l522oHHIs3V-28" value="+ method(type): type" style="text;strokeColor=none;fillColor=none;align=left;verticalAlign=top;spacingLeft=4;spacingRight=4;overflow=hidden;rotatable=0;points=[[0,0.5],[1,0.5]];portConstraint=eastwest;" vertex="1" parent="xQOM6FJt8l522oHHIs3V-25">
          <mxGeometry y="88" width="160" height="26" as="geometry" />
        </mxCell>
        <mxCell id="xQOM6FJt8l522oHHIs3V-30" value="" style="endArrow=none;html=1;rounded=0;entryX=-0.022;entryY=0.68;entryDx=0;entryDy=0;entryPerimeter=0;exitX=1;exitY=0.5;exitDx=0;exitDy=0;" edge="1" parent="1" source="xQOM6FJt8l522oHHIs3V-34" target="xQOM6FJt8l522oHHIs3V-2">
          <mxGeometry relative="1" as="geometry">
            <mxPoint x="180" y="242.99999999999977" as="sourcePoint" />
            <mxPoint x="340" y="180" as="targetPoint" />
          </mxGeometry>
        </mxCell>
        <mxCell id="xQOM6FJt8l522oHHIs3V-31" value="1..*" style="edgeLabel;resizable=0;html=1;align=left;verticalAlign=bottom;" connectable="0" vertex="1" parent="xQOM6FJt8l522oHHIs3V-30">
          <mxGeometry x="-1" relative="1" as="geometry" />
        </mxCell>
        <mxCell id="xQOM6FJt8l522oHHIs3V-32" value="1" style="edgeLabel;resizable=0;html=1;align=right;verticalAlign=bottom;" connectable="0" vertex="1" parent="xQOM6FJt8l522oHHIs3V-30">
          <mxGeometry x="1" relative="1" as="geometry" />
        </mxCell>
        <mxCell id="xQOM6FJt8l522oHHIs3V-33" value="Model" style="swimlane;fontStyle=1;align=center;verticalAlign=top;childLayout=stackLayout;horizontal=1;startSize=26;horizontalStack=0;resizeParent=1;resizeParentMax=0;resizeLast=0;collapsible=1;marginBottom=0;" vertex="1" parent="1">
          <mxGeometry x="10" y="94" width="160" height="130" as="geometry" />
        </mxCell>
        <mxCell id="xQOM6FJt8l522oHHIs3V-34" value="- price: decimal&#xa;- modelName: String&#xa;- series: String" style="text;strokeColor=none;fillColor=none;align=left;verticalAlign=top;spacingLeft=4;spacingRight=4;overflow=hidden;rotatable=0;points=[[0,0.5],[1,0.5]];portConstraint=eastwest;" vertex="1" parent="xQOM6FJt8l522oHHIs3V-33">
          <mxGeometry y="26" width="160" height="64" as="geometry" />
        </mxCell>
        <mxCell id="xQOM6FJt8l522oHHIs3V-35" value="" style="line;strokeWidth=1;fillColor=none;align=left;verticalAlign=middle;spacingTop=-1;spacingLeft=3;spacingRight=3;rotatable=0;labelPosition=right;points=[];portConstraint=eastwest;" vertex="1" parent="xQOM6FJt8l522oHHIs3V-33">
          <mxGeometry y="90" width="160" height="18" as="geometry" />
        </mxCell>
        <mxCell id="xQOM6FJt8l522oHHIs3V-36" value="+ method(type): type" style="text;strokeColor=none;fillColor=none;align=left;verticalAlign=top;spacingLeft=4;spacingRight=4;overflow=hidden;rotatable=0;points=[[0,0.5],[1,0.5]];portConstraint=eastwest;" vertex="1" parent="xQOM6FJt8l522oHHIs3V-33">
          <mxGeometry y="108" width="160" height="22" as="geometry" />
        </mxCell>
        <mxCell id="xQOM6FJt8l522oHHIs3V-37" value="" style="endArrow=none;html=1;rounded=0;entryX=0;entryY=0.5;entryDx=0;entryDy=0;exitX=1.03;exitY=0.893;exitDx=0;exitDy=0;exitPerimeter=0;" edge="1" parent="1" source="xQOM6FJt8l522oHHIs3V-36" target="xQOM6FJt8l522oHHIs3V-26">
          <mxGeometry relative="1" as="geometry">
            <mxPoint x="80" y="353.28" as="sourcePoint" />
            <mxPoint x="256.48" y="330" as="targetPoint" />
          </mxGeometry>
        </mxCell>
        <mxCell id="xQOM6FJt8l522oHHIs3V-38" value="1..*" style="edgeLabel;resizable=0;html=1;align=left;verticalAlign=bottom;" connectable="0" vertex="1" parent="xQOM6FJt8l522oHHIs3V-37">
          <mxGeometry x="-1" relative="1" as="geometry">
            <mxPoint y="8" as="offset" />
          </mxGeometry>
        </mxCell>
        <mxCell id="xQOM6FJt8l522oHHIs3V-39" value="1" style="edgeLabel;resizable=0;html=1;align=right;verticalAlign=bottom;" connectable="0" vertex="1" parent="xQOM6FJt8l522oHHIs3V-37">
          <mxGeometry x="1" relative="1" as="geometry">
            <mxPoint x="-10" as="offset" />
          </mxGeometry>
        </mxCell>
        <mxCell id="xQOM6FJt8l522oHHIs3V-41" value="" style="endArrow=none;html=1;rounded=0;entryX=1.009;entryY=0.686;entryDx=0;entryDy=0;entryPerimeter=0;exitX=0;exitY=0.5;exitDx=0;exitDy=0;" edge="1" parent="1" source="xQOM6FJt8l522oHHIs3V-22" target="xQOM6FJt8l522oHHIs3V-26">
          <mxGeometry relative="1" as="geometry">
            <mxPoint x="310" y="453.28" as="sourcePoint" />
            <mxPoint x="486.48" y="430" as="targetPoint" />
          </mxGeometry>
        </mxCell>
        <mxCell id="xQOM6FJt8l522oHHIs3V-42" value="1..*" style="edgeLabel;resizable=0;html=1;align=left;verticalAlign=bottom;" connectable="0" vertex="1" parent="xQOM6FJt8l522oHHIs3V-41">
          <mxGeometry x="-1" relative="1" as="geometry">
            <mxPoint x="-20" y="-7" as="offset" />
          </mxGeometry>
        </mxCell>
        <mxCell id="xQOM6FJt8l522oHHIs3V-43" value="1" style="edgeLabel;resizable=0;html=1;align=right;verticalAlign=bottom;" connectable="0" vertex="1" parent="xQOM6FJt8l522oHHIs3V-41">
          <mxGeometry x="1" relative="1" as="geometry">
            <mxPoint x="9" y="17" as="offset" />
          </mxGeometry>
        </mxCell>
      </root>
    </mxGraphModel>
  </diagram>
</mxfile>
